<svg xmlns="http://www.w3.org/2000/svg" xmlns:xlink="http://www.w3.org/1999/xlink" width="500" zoomAndPan="magnify" viewBox="0 0 375 374.999991" height="500" preserveAspectRatio="xMidYMid meet" version="1.0"><defs><g/><clipPath id="id1"><path d="M 16.878906 210.308594 L 358.128906 210.308594 L 358.128906 361.808594 L 16.878906 361.808594 Z M 16.878906 210.308594 " clip-rule="nonzero"/></clipPath><clipPath id="id2"><path d="M 16.878906 16.402344 L 358.128906 16.402344 L 358.128906 167.902344 L 16.878906 167.902344 Z M 16.878906 16.402344 " clip-rule="nonzero"/></clipPath><clipPath id="id3"><path d="M 76.160156 210.855469 L 298.910156 210.855469 L 298.910156 300.105469 L 76.160156 300.105469 Z M 76.160156 210.855469 " clip-rule="nonzero"/></clipPath><clipPath id="id4"><path d="M 76.160156 77.761719 L 298.910156 77.761719 L 298.910156 167.761719 L 76.160156 167.761719 Z M 76.160156 77.761719 " clip-rule="nonzero"/></clipPath></defs><g clip-path="url(#id1)"><path fill="rgb(100%, 100%, 100%)" d="M 187.445312 361.8125 C 93.441406 361.8125 16.878906 285.246094 16.878906 191.128906 C 16.878906 97.011719 93.441406 20.5625 187.445312 20.5625 C 281.445312 20.5625 358.011719 97.125 358.011719 191.128906 C 358.128906 285.246094 281.5625 361.8125 187.445312 361.8125 Z M 187.445312 23.449219 C 94.945312 23.449219 19.765625 98.628906 19.765625 191.128906 C 19.765625 283.628906 95.058594 358.925781 187.445312 358.925781 C 279.832031 358.925781 355.242188 283.628906 355.242188 191.128906 C 355.242188 98.628906 279.945312 23.449219 187.445312 23.449219 Z M 187.445312 23.449219 " fill-opacity="1" fill-rule="nonzero"/></g><path stroke-linecap="round" transform="matrix(3.007476, 0, 0, 2.691588, 0.0000045, 189.195369)" fill="none" stroke-linejoin="miter" d="M 0.500055 -0.0000210568 L 32.420514 -0.0000210568 " stroke="rgb(100%, 100%, 100%)" stroke-width="1" stroke-opacity="1" stroke-miterlimit="4"/><path stroke-linecap="round" transform="matrix(3.007476, 0, 0, 2.691588, 276.238786, 189.195369)" fill="none" stroke-linejoin="miter" d="M 0.499888 -0.0000210568 L 32.420347 -0.0000210568 " stroke="rgb(100%, 100%, 100%)" stroke-width="1" stroke-opacity="1" stroke-miterlimit="4"/><g clip-path="url(#id2)"><path fill="rgb(100%, 100%, 100%)" d="M 187.445312 357.652344 C 93.441406 357.652344 16.878906 281.085938 16.878906 186.96875 C 16.878906 92.851562 93.441406 16.402344 187.445312 16.402344 C 281.445312 16.402344 358.011719 92.964844 358.011719 186.96875 C 358.128906 281.085938 281.5625 357.652344 187.445312 357.652344 Z M 187.445312 19.289062 C 94.945312 19.289062 19.765625 94.46875 19.765625 186.96875 C 19.765625 279.46875 95.058594 354.765625 187.445312 354.765625 C 279.832031 354.765625 355.242188 279.46875 355.242188 186.96875 C 355.242188 94.46875 279.945312 19.289062 187.445312 19.289062 Z M 187.445312 19.289062 " fill-opacity="1" fill-rule="nonzero"/></g><g fill="rgb(100%, 100%, 100%)" fill-opacity="1"><g transform="translate(52.840059, 260.730818)"><g><path d="M 20.15625 -8.78125 L 24.953125 -1.34375 C 26.191406 0.582031 26.894531 2.53125 27.0625 4.5 C 27.238281 6.476562 26.898438 8.320312 26.046875 10.03125 C 25.191406 11.75 23.878906 13.175781 22.109375 14.3125 C 20.335938 15.457031 18.5 16.0625 16.59375 16.125 C 14.6875 16.1875 12.867188 15.726562 11.140625 14.75 C 9.421875 13.78125 7.941406 12.332031 6.703125 10.40625 L 1.90625 2.96875 Z M 8.296875 9.21875 C 9.328125 10.8125 10.546875 12.003906 11.953125 12.796875 C 13.359375 13.597656 14.832031 13.96875 16.375 13.90625 C 17.925781 13.84375 19.429688 13.34375 20.890625 12.40625 C 22.347656 11.46875 23.421875 10.304688 24.109375 8.921875 C 24.804688 7.535156 25.085938 6.035156 24.953125 4.421875 C 24.816406 2.816406 24.234375 1.21875 23.203125 -0.375 L 19.734375 -5.765625 L 4.828125 3.828125 Z M 8.296875 9.21875 "/></g></g></g><g fill="rgb(100%, 100%, 100%)" fill-opacity="1"><g transform="translate(69.202308, 285.131848)"><g><path d="M 14.3125 12.453125 L 12.859375 13.8125 L 2.40625 2.578125 L 18.296875 -12.203125 L 28.421875 -1.3125 L 26.96875 0.03125 L 18.40625 -9.171875 L 12.75 -3.90625 L 20.390625 4.3125 L 18.96875 5.640625 L 11.328125 -2.578125 L 5.421875 2.90625 Z M 14.3125 12.453125 "/></g></g></g><g fill="rgb(100%, 100%, 100%)" fill-opacity="1"><g transform="translate(85.993604, 302.796058)"><g><path d="M 30.34375 -3.96875 L 9.46875 7.3125 L 7.671875 5.9375 L 13.34375 -17.109375 L 15.3125 -15.59375 L 10.359375 4.390625 L 28.5 -5.40625 Z M 30.34375 -3.96875 "/></g></g></g><g fill="rgb(100%, 100%, 100%)" fill-opacity="1"><g transform="translate(106.185538, 317.983638)"><g><path d="M 17.546875 7.203125 L 16.609375 8.953125 L 3.109375 1.671875 L 13.40625 -17.4375 L 26.5 -10.375 L 25.5625 -8.625 L 14.484375 -14.59375 L 10.828125 -7.796875 L 20.703125 -2.46875 L 19.765625 -0.75 L 9.890625 -6.078125 L 6.0625 1.015625 Z M 17.546875 7.203125 "/></g></g></g><g fill="rgb(100%, 100%, 100%)" fill-opacity="1"><g transform="translate(127.677885, 329.169197)"><g><path d="M 10.625 -19.25 L 12.78125 -18.46875 L 6.15625 0.09375 L 17.609375 4.171875 L 16.9375 6.046875 L 3.328125 1.1875 Z M 10.625 -19.25 "/></g></g></g><g fill="rgb(100%, 100%, 100%)" fill-opacity="1"><g transform="translate(148.383243, 336.5799)"><g><path d="M 12.796875 2.421875 C 10.679688 2.054688 8.847656 1.25 7.296875 0 C 5.742188 -1.25 4.625 -2.78125 3.9375 -4.59375 C 3.25 -6.414062 3.085938 -8.351562 3.453125 -10.40625 C 3.804688 -12.46875 4.613281 -14.238281 5.875 -15.71875 C 7.132812 -17.195312 8.707031 -18.257812 10.59375 -18.90625 C 12.476562 -19.550781 14.476562 -19.691406 16.59375 -19.328125 C 18.707031 -18.953125 20.53125 -18.144531 22.0625 -16.90625 C 23.601562 -15.675781 24.71875 -14.144531 25.40625 -12.3125 C 26.09375 -10.488281 26.257812 -8.546875 25.90625 -6.484375 C 25.539062 -4.429688 24.722656 -2.660156 23.453125 -1.171875 C 22.179688 0.316406 20.613281 1.378906 18.75 2.015625 C 16.894531 2.660156 14.910156 2.796875 12.796875 2.421875 Z M 13.140625 0.40625 C 14.828125 0.707031 16.421875 0.59375 17.921875 0.0625 C 19.421875 -0.457031 20.675781 -1.328125 21.6875 -2.546875 C 22.707031 -3.765625 23.363281 -5.207031 23.65625 -6.875 C 23.945312 -8.539062 23.820312 -10.117188 23.28125 -11.609375 C 22.738281 -13.097656 21.851562 -14.34375 20.625 -15.34375 C 19.394531 -16.351562 17.9375 -17.007812 16.25 -17.3125 C 14.5625 -17.601562 12.960938 -17.484375 11.453125 -16.953125 C 9.941406 -16.429688 8.675781 -15.5625 7.65625 -14.34375 C 6.632812 -13.125 5.976562 -11.679688 5.6875 -10.015625 C 5.394531 -8.347656 5.519531 -6.769531 6.0625 -5.28125 C 6.613281 -3.789062 7.507812 -2.539062 8.75 -1.53125 C 9.988281 -0.53125 11.453125 0.113281 13.140625 0.40625 Z M 13.140625 0.40625 "/></g></g></g><g fill="rgb(100%, 100%, 100%)" fill-opacity="1"><g transform="translate(177.886971, 341.201617)"><g><path d="M 11.40625 -21.828125 C 14.175781 -21.859375 16.351562 -21.222656 17.9375 -19.921875 C 19.519531 -18.617188 20.328125 -16.8125 20.359375 -14.5 C 20.378906 -12.175781 19.613281 -10.347656 18.0625 -9.015625 C 16.507812 -7.679688 14.347656 -7 11.578125 -6.96875 L 5.75 -6.90625 L 5.828125 -0.0625 L 3.53125 -0.046875 L 3.28125 -21.75 Z M 11.5 -8.984375 C 13.644531 -9.015625 15.28125 -9.503906 16.40625 -10.453125 C 17.539062 -11.410156 18.097656 -12.75 18.078125 -14.46875 C 18.054688 -16.21875 17.46875 -17.554688 16.3125 -18.484375 C 15.164062 -19.421875 13.519531 -19.875 11.375 -19.84375 L 5.609375 -19.78125 L 5.734375 -8.921875 Z M 11.5 -8.984375 "/></g></g></g><g fill="rgb(100%, 100%, 100%)" fill-opacity="1"><g transform="translate(203.787396, 340.545694)"><g><path d="M 18.234375 -5.265625 L 18.578125 -3.3125 L 3.46875 -0.625 L -0.34375 -21.984375 L 14.3125 -24.59375 L 14.65625 -22.640625 L 2.265625 -20.4375 L 3.625 -12.84375 L 14.671875 -14.8125 L 15.015625 -12.890625 L 3.96875 -10.921875 L 5.390625 -2.984375 Z M 18.234375 -5.265625 "/></g></g></g><g fill="rgb(100%, 100%, 100%)" fill-opacity="1"><g transform="translate(227.770036, 336.021731)"><g><path d="M 17.296875 -6.171875 L 10.265625 -11.0625 C 9.765625 -10.8125 9.234375 -10.585938 8.671875 -10.390625 L 3.171875 -8.421875 L 5.484375 -1.953125 L 3.328125 -1.1875 L -3.96875 -21.625 L 3.6875 -24.359375 C 6.289062 -25.285156 8.550781 -25.390625 10.46875 -24.671875 C 12.394531 -23.960938 13.75 -22.519531 14.53125 -20.34375 C 15.101562 -18.738281 15.179688 -17.238281 14.765625 -15.84375 C 14.347656 -14.457031 13.476562 -13.253906 12.15625 -12.234375 L 19.640625 -7.015625 Z M 7.953125 -12.21875 C 9.972656 -12.9375 11.359375 -13.929688 12.109375 -15.203125 C 12.859375 -16.484375 12.945312 -17.9375 12.375 -19.5625 C 11.78125 -21.207031 10.789062 -22.28125 9.40625 -22.78125 C 8.019531 -23.289062 6.316406 -23.1875 4.296875 -22.46875 L -1.140625 -20.515625 L 2.515625 -10.265625 Z M 7.953125 -12.21875 "/></g></g></g><g fill="rgb(100%, 100%, 100%)" fill-opacity="1"><g transform="translate(262.560742, 322.228127)"><g><path d="M 14.1875 -37.15625 L 21.046875 -15.296875 L 19.078125 -13.875 L 3.0625 -25.09375 L 8.765625 -6.375 L 6.84375 -4.984375 L -11.84375 -18.234375 L -9.9375 -19.625 L 6.125 -8.1875 L 0.375 -27.109375 L 2.109375 -28.375 L 18.296875 -16.9375 L 12.40625 -35.859375 Z M 14.1875 -37.15625 "/></g></g></g><g fill="rgb(100%, 100%, 100%)" fill-opacity="1"><g transform="translate(293.044257, 298.65861)"><g><path d="M 11.171875 -15.34375 L 12.640625 -14.015625 L 2.359375 -2.625 L -13.765625 -17.15625 L -3.796875 -28.203125 L -2.3125 -26.875 L -10.734375 -17.53125 L -5 -12.359375 L 2.5 -20.6875 L 3.9375 -19.375 L -3.5625 -11.046875 L 2.4375 -5.65625 Z M 11.171875 -15.34375 "/></g></g></g><g fill="rgb(100%, 100%, 100%)" fill-opacity="1"><g transform="translate(309.260918, 280.364092)"><g><path d="M -0.25 -20.515625 C 0.769531 -21.554688 1.875 -22.160156 3.0625 -22.328125 C 4.25 -22.492188 5.453125 -22.1875 6.671875 -21.40625 C 8.253906 -20.414062 9.097656 -19.070312 9.203125 -17.375 C 9.316406 -15.675781 8.65625 -13.691406 7.21875 -11.421875 L 1.890625 -2.984375 L -16.453125 -14.578125 L -11.453125 -22.484375 C -10.160156 -24.523438 -8.742188 -25.851562 -7.203125 -26.46875 C -5.671875 -27.082031 -4.15625 -26.914062 -2.65625 -25.96875 C -1.644531 -25.320312 -0.941406 -24.523438 -0.546875 -23.578125 C -0.160156 -22.628906 -0.0625 -21.609375 -0.25 -20.515625 Z M -13.640625 -15.515625 L -6.984375 -11.296875 L -3.28125 -17.140625 C -2.34375 -18.628906 -1.898438 -19.953125 -1.953125 -21.109375 C -2.015625 -22.273438 -2.585938 -23.203125 -3.671875 -23.890625 C -4.753906 -24.578125 -5.832031 -24.695312 -6.90625 -24.25 C -7.988281 -23.8125 -9 -22.847656 -9.9375 -21.359375 Z M 5.609375 -12.40625 C 6.648438 -14.050781 7.15625 -15.46875 7.125 -16.65625 C 7.09375 -17.851562 6.484375 -18.828125 5.296875 -19.578125 C 3.015625 -21.023438 0.820312 -20.085938 -1.28125 -16.765625 L -5.375 -10.296875 L 1.515625 -5.9375 Z M 5.609375 -12.40625 "/></g></g></g><g fill="rgb(100%, 100%, 100%)" fill-opacity="1"><g transform="translate(61.316801, 152.865097)"><g><path d="M 6.5 -17.171875 L -1.765625 -14.984375 C -1.898438 -14.453125 -2.078125 -13.90625 -2.296875 -13.34375 L -4.359375 -7.890625 L 2.0625 -5.453125 L 1.25 -3.296875 L -19.046875 -10.984375 L -16.171875 -18.59375 C -15.179688 -21.175781 -13.789062 -22.96875 -12 -23.96875 C -10.207031 -24.96875 -8.234375 -25.0625 -6.078125 -24.25 C -4.484375 -23.644531 -3.289062 -22.734375 -2.5 -21.515625 C -1.71875 -20.296875 -1.363281 -18.851562 -1.4375 -17.1875 L 7.390625 -19.5 Z M -4.140625 -13.96875 C -3.378906 -15.96875 -3.238281 -17.671875 -3.71875 -19.078125 C -4.207031 -20.484375 -5.257812 -21.492188 -6.875 -22.109375 C -8.507812 -22.722656 -9.96875 -22.660156 -11.25 -21.921875 C -12.539062 -21.191406 -13.566406 -19.828125 -14.328125 -17.828125 L -16.375 -12.4375 L -6.1875 -8.578125 Z M -4.140625 -13.96875 "/></g></g></g><g fill="rgb(100%, 100%, 100%)" fill-opacity="1"><g transform="translate(68.56485, 133.390964)"><g><path d="M 3.5 -17.75 L -2.515625 -7.25 L 1.21875 -2.125 L 0.03125 -0.046875 L -13.859375 -19.453125 L -12.734375 -21.421875 L 11.03125 -19.234375 L 9.828125 -17.140625 Z M 1.46875 -17.96875 L -11.234375 -19.234375 L -3.71875 -8.921875 Z M 1.46875 -17.96875 "/></g></g></g><g fill="rgb(100%, 100%, 100%)" fill-opacity="1"><g transform="translate(78.696085, 115.457052)"><g><path d="M -9.59375 -22.6875 C -7.851562 -24.84375 -5.972656 -26.113281 -3.953125 -26.5 C -1.941406 -26.894531 -0.0351562 -26.367188 1.765625 -24.921875 C 3.578125 -23.460938 4.5 -21.710938 4.53125 -19.671875 C 4.570312 -17.628906 3.722656 -15.53125 1.984375 -13.375 L -1.671875 -8.828125 L 3.65625 -4.53125 L 2.21875 -2.75 L -14.6875 -16.359375 Z M 0.375 -14.59375 C 1.71875 -16.257812 2.378906 -17.832031 2.359375 -19.3125 C 2.347656 -20.789062 1.671875 -22.070312 0.328125 -23.15625 C -1.035156 -24.25 -2.441406 -24.644531 -3.890625 -24.34375 C -5.335938 -24.050781 -6.734375 -23.070312 -8.078125 -21.40625 L -11.703125 -16.90625 L -3.25 -10.09375 Z M 0.375 -14.59375 "/></g></g></g><g fill="rgb(100%, 100%, 100%)" fill-opacity="1"><g transform="translate(91.370881, 99.292734)"><g><path d="M 1.859375 -30.609375 L 16.234375 -14.359375 L 14.53125 -12.859375 L 7.890625 -20.359375 L -2.28125 -11.359375 L 4.359375 -3.859375 L 2.640625 -2.34375 L -11.734375 -18.59375 L -10.015625 -20.109375 L -3.609375 -12.875 L 6.5625 -21.875 L 0.15625 -29.109375 Z M 1.859375 -30.609375 "/></g></g></g><g fill="rgb(100%, 100%, 100%)" fill-opacity="1"><g transform="translate(108.928407, 83.727608)"><g><path d="M 11.5 -13.96875 L 1.21875 -7.59375 L 2.078125 -1.296875 L 0.046875 -0.03125 L -2.96875 -23.703125 L -1.046875 -24.90625 L 18.828125 -11.703125 L 16.765625 -10.421875 Z M 9.8125 -15.109375 L -0.78125 -22.265625 L 0.953125 -9.609375 Z M 9.8125 -15.109375 "/></g></g></g><g fill="rgb(100%, 100%, 100%)" fill-opacity="1"><g transform="translate(126.427907, 72.771647)"><g><path d="M 16.578125 -9.25 L 17.359375 -7.421875 L 3.25 -1.390625 L -5.28125 -21.34375 L 8.390625 -27.1875 L 9.171875 -25.359375 L -2.390625 -20.421875 L 0.640625 -13.328125 L 10.953125 -17.734375 L 11.71875 -15.9375 L 1.40625 -11.53125 L 4.578125 -4.125 Z M 16.578125 -9.25 "/></g></g></g><g fill="rgb(100%, 100%, 100%)" fill-opacity="1"><g transform="translate(144.16365, 65.174006)"><g><path d="M -2.296875 -21.859375 L -0.078125 -22.46875 L 5.109375 -3.453125 L 16.84375 -6.640625 L 17.359375 -4.71875 L 3.40625 -0.921875 Z M -2.296875 -21.859375 "/></g></g></g><g fill="rgb(100%, 100%, 100%)" fill-opacity="1"><g transform="translate(167.583295, 59.072548)"><g><path d="M 20.46875 -22.84375 L 21.640625 -1.171875 L 19.375 -1.046875 L 18.828125 -11.046875 L 5.265625 -10.3125 L 5.8125 -0.3125 L 3.53125 -0.1875 L 2.359375 -21.859375 L 4.640625 -21.984375 L 5.15625 -12.328125 L 18.71875 -13.0625 L 18.203125 -22.71875 Z M 20.46875 -22.84375 "/></g></g></g><g fill="rgb(100%, 100%, 100%)" fill-opacity="1"><g transform="translate(190.889134, 57.605202)"><g><path d="M 12.875 1.84375 C 10.75 1.570312 8.882812 0.847656 7.28125 -0.328125 C 5.675781 -1.515625 4.488281 -3 3.71875 -4.78125 C 2.957031 -6.5625 2.707031 -8.484375 2.96875 -10.546875 C 3.238281 -12.628906 3.96875 -14.4375 5.15625 -15.96875 C 6.351562 -17.5 7.875 -18.628906 9.71875 -19.359375 C 11.570312 -20.097656 13.5625 -20.332031 15.6875 -20.0625 C 17.832031 -19.789062 19.695312 -19.070312 21.28125 -17.90625 C 22.875 -16.738281 24.050781 -15.257812 24.8125 -13.46875 C 25.582031 -11.675781 25.832031 -9.738281 25.5625 -7.65625 C 25.300781 -5.59375 24.570312 -3.789062 23.375 -2.25 C 22.1875 -0.707031 20.675781 0.425781 18.84375 1.15625 C 17.007812 1.882812 15.019531 2.113281 12.875 1.84375 Z M 13.140625 -0.1875 C 14.847656 0.03125 16.4375 -0.15625 17.90625 -0.75 C 19.382812 -1.34375 20.601562 -2.269531 21.5625 -3.53125 C 22.519531 -4.800781 23.101562 -6.269531 23.3125 -7.9375 C 23.53125 -9.625 23.335938 -11.195312 22.734375 -12.65625 C 22.128906 -14.125 21.1875 -15.332031 19.90625 -16.28125 C 18.625 -17.226562 17.128906 -17.8125 15.421875 -18.03125 C 13.734375 -18.25 12.148438 -18.0625 10.671875 -17.46875 C 9.191406 -16.875 7.96875 -15.941406 7 -14.671875 C 6.03125 -13.410156 5.4375 -11.9375 5.21875 -10.25 C 5.007812 -8.582031 5.210938 -7.015625 5.828125 -5.546875 C 6.441406 -4.085938 7.390625 -2.882812 8.671875 -1.9375 C 9.960938 -0.988281 11.453125 -0.40625 13.140625 -0.1875 Z M 13.140625 -0.1875 "/></g></g></g><g fill="rgb(100%, 100%, 100%)" fill-opacity="1"><g transform="translate(214.860415, 60.54375)"><g><path d="M 27.234375 -14.078125 L 20.640625 6.59375 L 18.84375 6.015625 L 10.90625 -15.015625 L 5.546875 1.765625 L 3.359375 1.078125 L 9.953125 -19.59375 L 11.765625 -19.015625 L 19.734375 2 L 25.078125 -14.765625 Z M 27.234375 -14.078125 "/></g></g></g><g fill="rgb(100%, 100%, 100%)" fill-opacity="1"><g transform="translate(237.496023, 68.196045)"><g><path d="M 12.28125 -18.234375 L 14.375 -17.28125 L 5.296875 2.4375 L 3.203125 1.484375 Z M 12.28125 -18.234375 "/></g></g></g><g fill="rgb(100%, 100%, 100%)" fill-opacity="1"><g transform="translate(245.11036, 71.147448)"><g><path d="M 21.71875 0.578125 L 23.59375 1.734375 L 19.265625 8.78125 C 17.929688 9.019531 16.550781 8.976562 15.125 8.65625 C 13.695312 8.332031 12.332031 7.769531 11.03125 6.96875 C 9.1875 5.84375 7.769531 4.421875 6.78125 2.703125 C 5.800781 0.984375 5.328125 -0.847656 5.359375 -2.796875 C 5.390625 -4.753906 5.953125 -6.625 7.046875 -8.40625 C 8.140625 -10.1875 9.546875 -11.535156 11.265625 -12.453125 C 12.992188 -13.367188 14.847656 -13.78125 16.828125 -13.6875 C 18.804688 -13.59375 20.726562 -12.976562 22.59375 -11.84375 C 24 -10.976562 25.15625 -9.957031 26.0625 -8.78125 C 26.96875 -7.601562 27.554688 -6.320312 27.828125 -4.9375 L 25.84375 -4.453125 C 25.257812 -6.796875 23.84375 -8.660156 21.59375 -10.046875 C 20.101562 -10.953125 18.550781 -11.441406 16.9375 -11.515625 C 15.332031 -11.597656 13.820312 -11.265625 12.40625 -10.515625 C 11 -9.765625 9.851562 -8.664062 8.96875 -7.21875 C 8.082031 -5.78125 7.628906 -4.265625 7.609375 -2.671875 C 7.585938 -1.085938 7.96875 0.40625 8.75 1.8125 C 9.539062 3.21875 10.679688 4.375 12.171875 5.28125 C 14.078125 6.445312 15.984375 6.957031 17.890625 6.8125 Z M 21.71875 0.578125 "/></g></g></g><g fill="rgb(100%, 100%, 100%)" fill-opacity="1"><g transform="translate(264.150842, 82.889454)"><g><path d="M 7.140625 6.28125 C 5.910156 5.238281 4.898438 4.046875 4.109375 2.703125 C 3.316406 1.359375 2.882812 0.0976562 2.8125 -1.078125 L 4.640625 -1.828125 C 4.734375 -0.722656 5.117188 0.429688 5.796875 1.640625 C 6.472656 2.847656 7.34375 3.898438 8.40625 4.796875 C 9.894531 6.054688 11.238281 6.722656 12.4375 6.796875 C 13.632812 6.878906 14.601562 6.488281 15.34375 5.625 C 15.894531 4.96875 16.140625 4.269531 16.078125 3.53125 C 16.015625 2.789062 15.773438 2.066406 15.359375 1.359375 C 14.953125 0.660156 14.335938 -0.257812 13.515625 -1.40625 C 12.535156 -2.769531 11.796875 -3.910156 11.296875 -4.828125 C 10.804688 -5.742188 10.550781 -6.722656 10.53125 -7.765625 C 10.507812 -8.816406 10.9375 -9.859375 11.8125 -10.890625 C 12.519531 -11.722656 13.382812 -12.296875 14.40625 -12.609375 C 15.425781 -12.921875 16.566406 -12.894531 17.828125 -12.53125 C 19.085938 -12.175781 20.398438 -11.421875 21.765625 -10.265625 C 22.710938 -9.460938 23.523438 -8.546875 24.203125 -7.515625 C 24.890625 -6.484375 25.367188 -5.46875 25.640625 -4.46875 L 23.890625 -3.546875 C 23.578125 -4.597656 23.117188 -5.570312 22.515625 -6.46875 C 21.921875 -7.363281 21.25 -8.128906 20.5 -8.765625 C 19.039062 -9.992188 17.707031 -10.632812 16.5 -10.6875 C 15.300781 -10.75 14.328125 -10.34375 13.578125 -9.46875 C 13.015625 -8.800781 12.765625 -8.097656 12.828125 -7.359375 C 12.890625 -6.617188 13.132812 -5.882812 13.5625 -5.15625 C 14 -4.425781 14.617188 -3.503906 15.421875 -2.390625 C 16.367188 -1.066406 17.09375 0.0546875 17.59375 0.984375 C 18.101562 1.910156 18.367188 2.890625 18.390625 3.921875 C 18.410156 4.960938 17.992188 5.988281 17.140625 7 C 16.429688 7.832031 15.5625 8.398438 14.53125 8.703125 C 13.5 9.015625 12.347656 8.976562 11.078125 8.59375 C 9.804688 8.207031 8.492188 7.4375 7.140625 6.28125 Z M 7.140625 6.28125 "/></g></g></g><g fill="rgb(100%, 100%, 100%)" fill-opacity="1"><g transform="translate(277.694521, 94.282622)"><g><path d="M 19.8125 -7.53125 L 14.671875 -13.171875 L 16.140625 -14.5 L 27.953125 -1.515625 L 26.484375 -0.1875 L 21.359375 -5.828125 L 6.765625 7.4375 L 5.21875 5.734375 Z M 19.8125 -7.53125 "/></g></g></g><g fill="rgb(100%, 100%, 100%)" fill-opacity="1"><g transform="translate(288.859476, 106.268684)"><g><path d="M 12.3125 14.4375 L 10.671875 15.5625 L 2 2.90625 L 19.890625 -9.375 L 28.296875 2.890625 L 26.671875 4.015625 L 19.5625 -6.34375 L 13.1875 -1.96875 L 19.53125 7.28125 L 17.921875 8.375 L 11.578125 -0.875 L 4.9375 3.6875 Z M 12.3125 14.4375 "/></g></g></g><g fill="rgb(100%, 100%, 100%)" fill-opacity="1"><g transform="translate(299.747661, 122.56964)"><g><path d="M 20.765625 -7.1875 L 21.859375 -5.171875 L 2.765625 5.125 L 1.671875 3.109375 Z M 20.765625 -7.1875 "/></g></g></g><g fill="rgb(100%, 100%, 100%)" fill-opacity="1"><g transform="translate(304.094753, 129.439041)"><g><path d="M 28.09375 12.296875 L 7.875 20.1875 L 7.1875 18.421875 L 18.53125 -0.984375 L 2.125 5.421875 L 1.28125 3.296875 L 21.5 -4.59375 L 22.1875 -2.84375 L 10.875 16.59375 L 27.28125 10.1875 Z M 28.09375 12.296875 "/></g></g></g><g clip-path="url(#id3)"><path fill="rgb(100%, 100%, 100%)" d="M 187.496094 300.511719 C 126.136719 300.511719 76.160156 250.535156 76.160156 189.101562 C 76.160156 127.664062 126.136719 77.761719 187.496094 77.761719 C 248.855469 77.761719 298.832031 127.742188 298.832031 189.101562 C 298.910156 250.535156 248.929688 300.511719 187.496094 300.511719 Z M 187.496094 79.648438 C 127.117188 79.648438 78.042969 128.722656 78.042969 189.101562 C 78.042969 249.480469 127.191406 298.628906 187.496094 298.628906 C 247.800781 298.628906 297.023438 249.480469 297.023438 189.101562 C 297.023438 128.71875 247.875 79.648438 187.496094 79.648438 Z M 187.496094 79.648438 " fill-opacity="1" fill-rule="nonzero"/></g><g clip-path="url(#id4)"><path fill="rgb(100%, 100%, 100%)" d="M 187.496094 300.511719 C 126.136719 300.511719 76.160156 250.535156 76.160156 189.101562 C 76.160156 127.664062 126.136719 77.761719 187.496094 77.761719 C 248.855469 77.761719 298.832031 127.742188 298.832031 189.101562 C 298.910156 250.535156 248.929688 300.511719 187.496094 300.511719 Z M 187.496094 79.648438 C 127.117188 79.648438 78.042969 128.722656 78.042969 189.101562 C 78.042969 249.480469 127.191406 298.628906 187.496094 298.628906 C 247.800781 298.628906 297.023438 249.480469 297.023438 189.101562 C 297.023438 128.722656 247.875 79.648438 187.496094 79.648438 Z M 187.496094 79.648438 " fill-opacity="1" fill-rule="nonzero"/></g><g fill="rgb(100%, 100%, 100%)" fill-opacity="1"><g transform="translate(118.014459, 208.553976)"><g><path d="M 72.515625 17.480469 C 71.9375 16.976562 71.074219 17.050781 70.570312 17.695312 C 68.484375 20.214844 66.472656 21.4375 64.457031 21.367188 C 59.566406 21.222656 54.167969 13.597656 48.414062 5.609375 C 44.3125 -0.214844 39.78125 -6.617188 34.601562 -11.511719 C 38.488281 -12.804688 42.300781 -14.675781 45.96875 -17.191406 C 52.804688 -21.871094 58.917969 -28.558594 63.304688 -35.96875 C 69.925781 -47.261719 71.433594 -58.484375 67.261719 -65.25 C 65.03125 -68.917969 60.070312 -73.089844 49.132812 -72.296875 C 32.589844 -71.148438 13.378906 -60.285156 6.472656 -48.054688 C 2.949219 -41.941406 2.660156 -35.753906 5.46875 -30.070312 C 5.828125 -29.421875 6.617188 -29.136719 7.335938 -29.496094 C 7.984375 -29.78125 8.273438 -30.644531 7.914062 -31.363281 C 5.46875 -36.183594 5.828125 -41.363281 8.847656 -46.6875 C 15.324219 -57.980469 33.8125 -68.484375 49.351562 -69.566406 C 56.902344 -70.066406 62.226562 -68.125 64.886719 -63.808594 C 68.558594 -57.910156 67.046875 -47.765625 60.933594 -37.335938 C 52.730469 -23.523438 41.722656 -16.402344 32.085938 -13.667969 C 30.933594 -14.601562 29.78125 -15.464844 28.558594 -16.1875 C 27.335938 -16.976562 26.113281 -17.625 24.890625 -18.199219 C 25.609375 -20.933594 26.257812 -23.597656 26.832031 -26.113281 C 30.070312 -39.0625 33.019531 -51.292969 34.675781 -58.703125 C 34.816406 -59.421875 34.386719 -60.140625 33.59375 -60.355469 C 32.875 -60.5 32.15625 -59.996094 32.011719 -59.277344 C 30.359375 -51.867188 27.335938 -39.710938 24.171875 -26.761719 C 23.523438 -24.171875 22.949219 -21.652344 22.300781 -19.28125 C 18.199219 -20.789062 14.820312 -20.789062 12.734375 -19.207031 C 11.4375 -18.128906 10.933594 -16.546875 11.4375 -14.964844 C 12.15625 -12.804688 14.746094 -10.429688 20 -9.785156 C 8.417969 38.054688 8.632812 41.078125 10.863281 41.867188 C 11.078125 41.941406 11.292969 41.941406 11.4375 41.941406 C 12.804688 41.941406 13.882812 40.070312 15.753906 35.96875 C 16.042969 35.320312 15.753906 34.457031 15.035156 34.171875 C 14.316406 33.882812 13.523438 34.171875 13.164062 34.890625 C 13.019531 35.25 12.804688 35.679688 12.660156 36.042969 C 13.882812 27.769531 18.417969 8.417969 22.804688 -9.640625 C 25.683594 -9.566406 28.558594 -9.925781 31.507812 -10.574219 C 36.976562 -5.828125 41.796875 1.007812 46.183594 7.195312 C 52.585938 16.1875 58.054688 23.957031 64.386719 24.171875 C 64.457031 24.171875 64.527344 24.171875 64.601562 24.171875 C 67.476562 24.171875 70.140625 22.589844 72.730469 19.421875 C 73.234375 18.847656 73.089844 17.984375 72.515625 17.480469 Z M 14.101562 -15.828125 C 13.957031 -16.328125 14.027344 -16.691406 14.460938 -16.976562 C 15.035156 -17.480469 15.828125 -17.695312 16.761719 -17.695312 C 18.199219 -17.695312 19.925781 -17.191406 21.652344 -16.546875 C 21.292969 -15.179688 21.007812 -13.8125 20.644531 -12.515625 C 16.761719 -12.949219 14.53125 -14.460938 14.101562 -15.828125 Z M 23.523438 -12.375 C 23.738281 -13.378906 23.957031 -14.386719 24.242188 -15.394531 C 25.324219 -14.890625 26.328125 -14.316406 27.121094 -13.8125 C 27.625 -13.523438 28.128906 -13.238281 28.558594 -12.878906 C 26.832031 -12.589844 25.105469 -12.445312 23.523438 -12.375 Z M 23.523438 -12.375 "/></g></g></g><g fill="rgb(100%, 100%, 100%)" fill-opacity="1"><g transform="translate(195.778523, 208.553976)"><g><path d="M 64.242188 -28.632812 C 64.023438 -29.351562 63.234375 -29.78125 62.515625 -29.496094 C 58.484375 -28.199219 52.804688 -26.472656 46.113281 -24.460938 C 49.78125 -43.449219 53.59375 -63.019531 55.535156 -70.644531 C 55.679688 -71.363281 55.25 -72.152344 54.53125 -72.296875 C 53.808594 -72.515625 53.019531 -72.082031 52.875 -71.363281 C 50.859375 -63.449219 46.832031 -43.089844 43.089844 -23.597656 C 42.585938 -23.453125 42.085938 -23.234375 41.507812 -23.09375 C 32.804688 -20.503906 22.734375 -17.410156 13.09375 -14.386719 C 15.324219 -25.25 17.984375 -38.199219 21.222656 -53.523438 L 21.582031 -55.03125 C 22.734375 -60.644531 22.371094 -63.738281 20.429688 -64.960938 C 18.777344 -65.894531 16.472656 -65.175781 13.667969 -62.730469 C 6.976562 -56.902344 -3.667969 -40.429688 -0.648438 -33.164062 C 0.0703125 -31.4375 1.796875 -29.421875 6.1875 -29.710938 C 6.976562 -29.78125 7.554688 -30.429688 7.480469 -31.222656 C 7.410156 -31.941406 6.761719 -32.515625 6.042969 -32.515625 C 2.734375 -32.300781 2.085938 -33.738281 1.871094 -34.242188 C 0.933594 -36.617188 2.15625 -41.4375 5.25 -47.121094 C 8.128906 -52.441406 12.15625 -57.695312 15.464844 -60.570312 C 17.769531 -62.585938 18.847656 -62.660156 18.992188 -62.515625 C 19.0625 -62.515625 20.144531 -61.652344 18.847656 -55.609375 L 18.558594 -54.097656 C 17.191406 -47.765625 13.667969 -31.148438 10.070312 -13.453125 C 5.109375 -11.871094 0.214844 -10.359375 -4.171875 -8.847656 C -11.796875 -6.332031 -17.480469 -4.246094 -21.507812 -2.519531 C -27.984375 0.214844 -29.207031 1.511719 -29.136719 2.949219 C -29.0625 3.667969 -28.632812 4.675781 -26.6875 5.035156 C -26.617188 5.035156 -26.546875 5.035156 -26.472656 5.035156 C -25.824219 5.035156 -25.25 4.605469 -25.105469 3.957031 C -24.960938 3.382812 -25.25 2.804688 -25.683594 2.519531 C -23.8125 1.367188 -18.273438 -1.292969 -1.726562 -6.761719 C 1.796875 -7.914062 5.539062 -9.136719 9.425781 -10.359375 C 8.703125 -6.835938 7.984375 -3.238281 7.265625 0.289062 C 4.746094 12.804688 2.804688 22.660156 1.582031 29.710938 C 0.863281 33.8125 0.289062 36.976562 0 39.132812 C -0.429688 42.300781 -0.648438 43.882812 0.863281 44.3125 C 1.007812 44.386719 1.152344 44.386719 1.292969 44.386719 C 2.445312 44.386719 2.949219 42.945312 3.523438 41.4375 C 3.742188 40.71875 3.382812 39.996094 2.734375 39.710938 C 3.382812 34.675781 5.683594 21.652344 12.445312 -11.292969 C 22.589844 -14.460938 33.164062 -17.695312 42.300781 -20.429688 C 42.371094 -20.503906 42.445312 -20.503906 42.515625 -20.503906 C 41.582031 -15.683594 40.71875 -10.933594 39.855469 -6.546875 C 37.695312 5.035156 35.824219 14.964844 34.960938 18.917969 C 34.816406 19.710938 35.25 20.429688 36.042969 20.574219 C 36.113281 20.574219 36.257812 20.574219 36.328125 20.574219 C 36.976562 20.574219 37.550781 20.144531 37.695312 19.496094 C 38.488281 15.539062 40.285156 6.042969 42.585938 -6.042969 C 43.523438 -10.863281 44.53125 -16.113281 45.535156 -21.4375 C 52.804688 -23.597656 59.0625 -25.464844 63.378906 -26.90625 C 64.097656 -27.121094 64.527344 -27.914062 64.242188 -28.632812 Z M 64.242188 -28.632812 "/></g></g></g></svg>